<svg width="607" height="231" viewBox="0 0 607 231" fill="none" xmlns="http://www.w3.org/2000/svg">
<path d="M82.4112 15.1207C93.7593 16.9125 103.465 24.5277 105.854 36.1744C106.302 38.1155 106.302 38.8621 106.302 42.2964C106.451 44.3868 106.153 46.4773 105.705 48.5677C104.211 55.287 101.225 61.7076 97.0443 67.083C86.1442 81.5667 70.3166 88.1366 52.5479 88.5846C49.1136 88.7339 48.367 88.8832 48.367 89.0325C48.2177 89.4805 41.1998 109.788 39.408 114.864C38.2135 118.448 38.0642 118.747 37.6162 118.747C37.1683 118.747 36.8696 118.597 36.571 118.299L35.9737 117.851L36.4217 116.208C37.4669 112.475 44.1861 90.3764 44.9327 88.5846C44.9327 88.4353 44.7834 88.286 43.8875 87.9873C41.7971 87.5394 40.0053 86.3448 38.9601 84.7024C38.6614 84.4037 38.3628 83.9558 38.2135 83.6571C38.2135 83.0599 39.1094 83.5078 40.1546 84.553C41.3491 85.8969 42.245 86.1955 44.6341 86.4942L45.53 86.6435L47.0232 81.5667C55.0863 56.6308 61.3576 39.758 67.0316 28.2606C69.57 23.1838 71.0632 20.7948 71.6604 20.6455C72.5563 20.4961 73.1536 20.6455 74.0495 21.5414C74.7961 22.2879 74.9454 22.4373 74.9454 23.4825C74.9454 23.7811 74.9454 24.0797 74.7961 24.3784V26.0209C74.6468 26.3195 74.6468 26.6181 74.6468 26.9168C74.4975 28.1113 74.1988 29.9031 74.1988 30.9483C74.0495 32.1428 73.9002 32.8894 73.7509 32.8894C73.3029 33.0388 72.1084 32.2922 71.6604 31.8442C71.3618 31.3963 71.3618 30.799 71.5111 30.2017L71.6604 29.1565L71.2125 30.0524C69.2714 34.3826 49.2629 84.553 49.2629 86.4942C49.2629 86.9421 53.4438 86.4942 57.6247 85.8969C70.6152 83.6571 81.6647 77.8338 90.4743 67.8296C101.822 54.9883 106.302 40.0566 101.673 30.0524C97.6416 21.392 86.4428 16.6139 72.407 17.9578C56.4301 19.3016 37.0189 27.962 21.9379 40.5046C20.8927 41.2512 18.5037 43.6402 16.5625 45.5814C9.24602 52.8979 5.21447 59.4678 4.46788 65.7391C4.01993 68.4268 4.6172 71.1145 5.96105 73.3543C7.75285 76.1913 12.3817 78.7297 16.8612 79.327C19.1009 79.6256 19.6982 79.7749 20.4448 80.6708C21.6393 82.0147 21.042 82.3133 18.3543 81.716C14.6214 81.1188 11.1871 79.6256 8.05148 77.5352C3.12403 74.1009 1.0336 69.6214 1.63086 64.0966C2.37745 57.9747 6.409 51.1061 13.4269 43.9389C27.7613 29.3058 48.6656 17.9578 68.9727 14.9714C73.4522 14.6728 77.9317 14.6728 82.4112 15.1207ZM132.886 84.553C133.185 84.7024 133.334 85.001 133.483 85.2996C133.633 85.7476 130.796 88.4353 129.153 89.3312C127.361 90.5257 125.271 91.2723 123.181 91.8696C120.493 92.3175 117.954 91.5709 114.819 89.0325C112.728 87.5394 112.43 87.3901 111.683 87.3901C107.95 87.3901 100.186 98.4395 97.1994 107.846C96.7515 109.041 96.4528 110.236 95.8556 111.281C95.5569 111.729 94.9597 111.729 94.2131 111.281C93.0186 110.683 92.272 109.937 92.272 109.19C92.272 106.353 102.575 76.7886 105.113 75.7434C105.71 75.594 106.756 76.042 107.502 76.9379C108.1 77.6845 108.1 78.879 107.502 79.0283C107.054 79.1776 106.905 79.327 106.756 79.7749C106.009 81.4174 104.815 84.8517 104.068 86.9421L103.321 89.0325L104.665 87.6887C106.308 86.0462 107.95 85.1503 109.742 85.1503C111.832 85.1503 113.774 86.4942 115.416 87.6887C117.954 89.6298 118.552 89.9284 120.493 89.9284C123.778 89.9284 128.108 87.9873 130.945 85.4489L132.438 84.1051L132.886 84.553ZM142.645 82.3133C143.243 84.7024 142.197 90.2271 140.406 93.96C139.51 96.1997 138.017 98.1409 136.374 99.7834C133.985 102.023 131.895 102.62 129.953 101.724C128.61 100.978 127.564 100.082 126.668 98.7381C126.37 97.9916 126.37 97.6929 126.37 95.4532C126.221 93.8107 126.519 92.1682 127.116 90.675C128.46 86.6435 130.7 82.7612 132.641 80.8201C133.836 79.7749 134.433 79.6256 135.478 79.9242C135.926 80.0735 136.523 80.0735 136.971 79.7749C137.419 79.6256 137.867 79.327 138.315 79.327C139.808 78.879 142.197 80.6708 142.645 82.3133ZM139.062 87.5394C139.808 85.1503 140.256 81.5667 139.958 81.5667C139.062 81.8653 138.315 82.4626 137.718 83.0599C137.569 83.3585 137.419 83.8065 137.419 84.1051C137.419 85.2996 137.121 85.7476 136.673 85.5983C136.225 85.4489 136.225 85.4489 136.225 86.0462C136.225 87.0914 136.971 88.4353 137.718 88.7339C137.867 88.7339 138.166 88.8832 138.465 88.8832C138.763 88.4353 138.912 87.9873 139.062 87.5394ZM137.419 91.7202L138.166 90.0778L137.419 89.6298C136.225 89.0325 135.18 87.9873 134.582 86.7928C133.985 85.5983 134.134 85.5983 132.79 88.1366C131.148 91.4216 130.103 95.0052 130.103 97.5436C130.103 99.0368 130.103 99.1861 131.596 98.2902C134.134 96.6477 136.075 94.4079 137.419 91.7202ZM211.97 90.2271C212.866 90.675 213.016 91.123 212.418 91.7202C209.731 94.8559 200.622 97.9916 196.143 97.9916C192.709 97.9916 190.021 96.3491 185.392 92.3175C183.6 90.675 182.854 90.3764 181.36 90.8243C180.166 91.2723 178.673 92.1682 176.134 94.1093C175.238 94.7066 174.492 95.3038 173.596 95.7518C172.252 96.1997 170.46 95.3038 169.714 93.8107C169.266 92.9148 169.415 89.7791 169.863 85.2996C170.46 81.1188 170.759 75.1461 170.46 75.1461C170.012 75.1461 167.026 78.1324 165.085 80.5215C159.709 86.9421 154.931 93.8107 150.9 101.277C148.511 105.457 148.063 106.204 147.316 106.503C146.868 106.652 146.271 106.652 145.972 106.503C144.927 106.204 144.181 105.607 143.434 104.86C142.837 103.964 142.538 102.172 142.837 98.8875C143.434 92.6161 144.629 86.4942 146.719 80.5215C148.361 75.4447 151.198 68.5761 151.945 67.9789C152.841 67.3816 155.529 69.0241 155.529 70.3679C155.081 71.7118 154.782 73.0556 154.185 74.3995C151.646 80.9694 149.705 87.6887 148.361 94.7066C147.615 98.2902 147.466 99.3354 147.615 99.1861C147.615 97.6929 165.085 72.3091 169.564 72.3091C171.058 72.3091 172.999 73.9515 173.447 75.8927C173.895 77.3858 173.745 81.2681 173.148 86.6435C172.849 89.1819 172.551 91.5709 172.551 91.8696L172.7 92.6161L174.343 91.4216C175.985 90.0778 177.777 89.1819 179.718 88.5846C181.958 88.1366 184.347 89.0325 187.184 91.7202C190.469 94.7066 191.813 95.6025 193.903 95.9011C197.935 96.4984 207.342 93.6614 210.477 90.8243C211.373 90.0778 211.522 89.9284 211.97 90.2271ZM256.403 86.1955C257 86.4942 257.298 86.7928 257.448 87.3901C257.448 87.838 254.163 89.4805 251.326 90.3764C246.846 91.8696 240.874 92.7655 237.29 92.4668L235.498 92.3175L234.154 94.2586C232.363 96.797 228.63 101.127 225.195 101.127C224.449 101.127 223.702 100.978 223.105 100.53C222.209 100.082 221.612 99.1861 221.313 98.1409C220.865 96.4984 222.06 93.8107 223.852 91.8696C225.942 89.4805 228.032 88.8832 231.467 89.6298C232.661 89.9284 233.109 90.0778 233.258 89.7791C234.453 87.838 235.498 85.5983 236.394 83.5078C237.738 80.2229 238.335 76.7886 237.738 75.8927C237.439 75.2954 234.304 76.6393 231.616 78.879C224.598 84.553 212.951 101.724 203.992 119.344C199.662 128.154 199.364 128.751 194.585 143.085C192.196 150.402 189.957 156.972 189.658 157.718L188.911 159.062H188.165C187.418 159.062 186.821 158.913 186.224 158.465C185.776 158.316 185.328 157.868 185.029 157.569C184.88 156.972 191.3 136.217 195.183 125.167C201.603 106.503 209.069 88.286 217.879 70.5173C220.417 65.1419 221.015 64.0966 221.612 64.0966C222.508 64.246 223.254 64.8432 223.852 65.5898C224.15 66.0378 224.15 66.1871 223.852 67.5309C223.702 68.1282 223.553 68.7255 223.105 69.1734C221.91 70.3679 207.427 105.756 207.427 106.353C207.427 106.353 208.323 105.159 209.218 103.516C212.802 97.5436 227.584 73.5036 235.946 73.5036C237.141 73.5036 238.037 73.9515 239.082 74.9968C240.276 76.3406 240.426 77.2365 240.426 79.6256C240.276 81.8653 239.231 85.001 237.589 88.4353L236.394 90.8243L239.231 90.675C244.756 90.3764 251.774 88.7339 255.208 86.7928C255.357 86.7928 255.357 86.6435 255.507 86.6435L256.104 86.3448C256.253 86.3448 256.253 86.1955 256.403 86.1955ZM225.643 98.2902C227.435 97.3943 232.363 92.1682 231.915 91.5709C231.765 91.123 229.376 91.2723 228.48 91.7202C226.39 92.7655 224.15 96.0504 223.852 98.2902C223.702 99.0368 223.702 99.1861 224.15 98.8875C224.747 98.7381 225.195 98.5888 225.643 98.2902ZM312.333 25.4236C312.632 25.7222 312.781 26.9168 312.483 26.9168C312.333 26.9168 311.437 26.6181 310.542 26.4688C307.257 25.7222 304.27 25.5729 297.551 25.7222C294.266 25.7222 277.543 26.6181 275.9 27.514C275.004 28.4099 264.851 59.3185 261.416 71.2638C257.534 84.8517 252.457 108.444 251.86 115.163C251.711 116.805 251.86 116.955 252.159 117.104C252.457 117.104 252.756 117.253 252.905 117.552C253.353 117.701 253.353 117.851 252.905 118.299C252.308 118.896 251.561 118.896 250.666 118.448C250.218 118.149 249.919 117.851 249.77 117.403C248.874 115.163 250.666 103.516 254.846 82.7612C257.385 68.8748 261.118 55.287 265.747 41.8484C266.493 39.9073 267.09 37.9662 267.24 37.6676C267.538 36.7717 263.357 44.9841 262.462 47.3732C261.267 50.2102 259.027 55.8842 258.131 58.7212C257.982 59.4678 257.683 60.2144 257.385 60.961C257.086 61.1103 256.19 60.6624 255.742 60.0651C255.444 59.6171 255.444 59.4678 256.041 57.8253C258.729 48.2691 263.357 39.0114 267.986 30.2017C268.434 29.6045 268.733 29.0072 269.032 28.2606C268.882 28.2606 260.52 29.6045 257.086 30.3511C245.589 32.5908 233.942 36.6224 229.015 40.0566C226.924 41.4005 225.58 43.1923 225.879 44.0882C226.178 44.9841 228.417 46.0293 231.553 46.9252C233.196 47.5225 233.494 47.6718 233.942 48.2691C234.091 48.5677 234.241 48.8663 234.39 49.3143C234.39 49.6129 234.241 49.6129 233.494 49.6129C231.105 49.0156 228.716 48.1197 226.626 46.6266C224.386 45.1334 223.341 42.4457 224.386 40.5046C226.476 36.3237 237.974 31.247 251.86 28.2606C255.593 27.514 261.118 26.6181 266.045 25.8715C268.285 25.7222 270.226 25.4236 270.525 25.2743C270.823 25.2743 271.271 24.677 272.018 23.1838C273.959 20.0482 275.303 18.1071 275.601 18.1071C276.497 18.1071 277.991 19.7496 277.991 20.6455C277.991 21.392 277.692 22.1386 277.393 22.8852L276.796 24.677L277.841 24.5277C286.651 23.4825 301.732 23.1838 306.958 23.9304C309.795 24.3784 312.035 24.9756 312.333 25.4236ZM327.62 67.6802C325.828 67.083 324.335 65.2912 324.335 63.798C324.335 55.7349 357.632 38.4142 363.605 35.4278C368.831 32.7401 378.537 28.2606 378.835 28.2606C379.731 26.9168 380.627 25.5729 381.374 24.2291C384.36 19.1523 387.048 14.8221 387.645 14.2248C387.944 14.0755 388.242 13.9262 388.541 13.7769C389.138 13.7769 390.183 14.6728 390.482 15.5687C390.93 16.0166 390.93 16.6139 390.631 17.2112C390.183 17.9578 388.84 24.0797 388.84 24.0797C388.84 24.0797 390.482 23.6318 392.423 22.8852C405.563 18.1071 416.911 15.5687 425.721 15.2701C429.902 15.1207 432.291 15.5687 434.381 16.4646C436.77 17.6591 437.815 19.8989 437.815 22.4373C437.815 23.4825 437.517 24.677 436.92 25.5729C433.933 31.9935 420.644 41.6991 388.989 61.1103C367.637 74.2502 363.008 77.0872 362.709 77.6845C362.56 77.9831 362.709 77.9831 367.637 78.5804C378.387 79.7749 384.211 81.4174 388.392 83.9558C392.423 86.4942 394.663 90.5257 394.066 94.1093C393.618 97.3943 390.333 100.829 385.107 103.367C380.03 106.055 374.057 107.399 367.189 107.399C362.56 107.399 357.334 106.801 351.66 105.457C351.361 105.308 351.212 105.457 350.614 107.996C349.569 112.326 349.271 114.267 349.569 115.611C349.719 116.208 349.719 116.358 349.42 116.358C349.42 116.358 349.271 116.358 349.271 116.208H348.823C348.673 116.059 348.673 116.059 348.524 116.059C348.076 115.76 347.777 115.312 347.628 114.864C347.18 113.52 347.33 110.385 348.076 106.951C348.375 105.607 348.524 104.412 348.524 104.412C348.225 104.114 347.777 103.964 347.33 103.666C345.388 102.62 343.895 100.53 343.895 98.8875C343.895 97.9916 344.642 98.5888 345.09 99.9327C345.388 100.829 346.135 101.426 347.628 102.023C348.972 102.62 349.121 102.62 349.121 102.172C349.121 101.724 352.108 91.7202 353.75 86.4942C360.469 65.1419 365.994 51.7033 374.804 35.8758C375.55 34.3826 376.148 33.1881 376.148 33.0388C376.148 32.8894 372.713 34.3826 367.786 36.921C353.75 43.6402 342.253 50.5088 334.04 56.9294C330.457 59.7665 326.425 64.246 326.873 64.8432C327.022 65.1419 328.964 65.1419 330.457 64.8432C331.651 64.6939 331.801 64.6939 332.398 65.1419C333.144 65.7391 333.891 67.2323 333.443 67.6802C333.144 67.9789 329.113 67.9789 327.62 67.6802ZM383.613 30.3511C381.672 33.1881 364.202 67.8296 364.202 69.3227C364.202 69.472 364.65 69.1734 367.487 67.3816C371.817 64.5446 378.537 60.513 389.288 53.9431C417.359 36.921 429.155 28.7086 433.485 23.6318C434.232 22.7359 434.978 21.6907 435.426 20.6455L434.381 20.0482C432.888 19.4509 430.499 19.1523 427.513 19.1523C421.689 19.1523 413.477 20.3468 405.115 22.5866C399.59 24.0797 390.631 26.9168 388.541 27.962C388.093 28.1113 387.645 28.2606 387.346 28.4099C387.197 28.4099 387.048 28.5592 386.898 28.5592L386.003 28.8579C385.853 28.8579 385.704 29.0072 385.555 29.0072C384.36 29.4551 383.912 29.7538 383.613 30.3511ZM369.13 83.0599C363.157 82.4626 361.664 82.3133 360.32 81.716C360.021 81.5667 359.723 81.4174 359.424 81.4174C358.976 81.716 351.958 102.322 351.958 102.919C351.958 103.068 352.257 103.367 352.406 103.367C354.945 103.815 357.483 104.114 360.021 104.263C361.365 104.412 362.858 104.412 363.456 104.561C369.876 104.561 376.596 102.919 382.419 100.231C388.093 97.3943 391.677 93.6614 391.677 90.5257C391.677 89.0325 388.989 87.2407 384.808 85.7476C381.075 84.4037 377.641 83.8065 369.13 83.0599ZM562.223 24.3784C562.522 24.8263 562.522 25.4236 562.373 25.8715C561.775 25.8715 561.327 25.8715 560.73 25.7222C558.49 25.2743 551.622 25.2743 546.694 25.7222C540.274 26.3195 526.984 27.8127 526.835 27.962C526.536 28.4099 521.46 43.1923 519.668 49.3143C513.845 68.8748 507.573 96.6477 505.035 114.566C504.438 118.597 503.99 122.629 503.99 126.66C503.99 129.796 504.139 130.692 504.438 131.737C504.438 131.886 504.438 132.036 504.587 132.036V132.782C504.736 132.932 504.736 132.932 504.736 133.081C504.736 133.38 503.99 133.38 503.243 132.932V133.081C502.646 132.633 501.899 130.692 501.601 128.154C501.153 124.57 501.899 116.656 503.392 106.204C505.781 90.3764 511.157 64.9925 515.338 49.9115C515.935 47.8211 516.383 46.1786 516.234 46.1786C515.636 47.0745 515.039 48.1197 514.442 49.165C499.51 76.1913 494.881 83.8065 489.207 91.123C487.117 93.8107 484.877 96.1997 482.339 98.4395C480.398 99.9327 479.203 100.381 477.411 100.381C475.918 100.53 474.425 99.9327 473.38 98.8875C471.439 96.9463 470.543 94.1093 470.543 89.3312C470.543 86.0462 470.692 84.553 471.588 78.879C471.887 77.6845 472.036 76.3406 472.185 74.9968C471.887 74.8475 468.452 77.3858 463.823 80.8201C450.684 90.8243 447.697 92.9148 444.711 94.4079C443.367 95.1545 442.322 95.4532 441.426 95.4532C440.53 95.4532 439.933 95.1545 439.186 94.5573C437.693 93.0641 437.394 91.8696 438.44 89.7791C441.725 83.5078 452.475 74.5488 460.091 74.5488C461.285 74.5488 462.48 74.8475 463.525 75.2954L464.421 75.594L466.362 74.2502C469.05 72.3091 470.692 71.4132 471.887 71.4132C473.081 71.5625 474.276 72.1597 474.873 73.205C475.47 74.1009 475.47 74.2502 475.47 75.594C475.47 76.9379 475.321 78.1324 475.022 79.4763C474.425 82.9106 473.977 86.4942 473.828 89.9284C473.678 93.512 473.977 95.6025 474.724 97.0957C475.022 97.9916 475.172 98.1409 475.769 98.1409C481.891 98.1409 494.583 77.6845 497.121 73.3543C503.094 63.3501 522.356 28.5592 521.908 28.5592C520.862 28.5592 505.781 30.9483 498.465 32.2922C493.537 33.1881 492.791 33.3374 493.687 33.4867C494.135 33.4867 494.583 33.636 494.881 33.9347C495.329 34.2333 495.479 34.8306 495.479 35.2785V36.0251L488.909 35.8758C485.176 35.8758 482.04 35.7265 481.891 35.5771C481.293 35.1292 480.995 34.3826 480.995 33.4867C480.995 33.1881 481.144 32.8894 481.443 32.7401C483.384 31.3963 501.153 28.2606 518.623 26.1702L523.102 25.5729L524.446 22.4373C526.835 16.4646 529.523 10.6412 530.269 9.89465C530.867 9.4467 531.613 9.74534 532.658 10.6412C533.853 11.9851 533.853 12.433 530.269 19.7496C529.075 22.1386 528.03 24.3784 528.03 24.677C527.88 25.125 527.88 25.125 528.627 24.9756C529.821 24.8263 542.663 23.6318 546.694 23.4825C554.309 23.0345 561.477 23.4825 562.223 24.3784ZM456.806 81.4174C462.181 77.2365 462.33 77.2365 461.584 77.2365C459.941 77.0872 455.91 78.7297 452.625 80.8201C450.236 82.4626 448.145 84.2544 446.055 86.1955C444.412 87.9873 441.874 91.2723 441.874 91.5709C441.874 91.8696 443.367 91.123 445.308 89.7791C447.249 88.5846 451.132 85.7476 456.806 81.4174ZM585.011 25.4236C585.31 25.7222 585.459 26.9168 585.161 26.9168C585.011 26.9168 584.116 26.6181 583.22 26.4688C579.935 25.7222 576.948 25.5729 570.229 25.7222C566.944 25.7222 550.221 26.6181 548.578 27.514C547.682 28.4099 537.529 59.3185 534.094 71.2638C530.212 84.8517 525.135 108.444 524.538 115.163C524.389 116.805 524.538 116.955 524.837 117.104C525.135 117.104 525.434 117.253 525.583 117.552C526.031 117.701 526.031 117.851 525.583 118.299C524.986 118.896 524.24 118.896 523.344 118.448C522.896 118.149 522.597 117.851 522.448 117.403C521.552 115.163 523.344 103.516 527.525 82.7612C530.063 68.8748 533.796 55.287 538.425 41.8484C539.171 39.9073 539.769 37.9662 539.918 37.6676C540.216 36.7717 536.036 44.9841 535.14 47.3732C533.945 50.2102 531.705 55.8842 530.81 58.7212C530.66 59.4678 530.362 60.2144 530.063 60.961C529.764 61.1103 528.868 60.6624 528.42 60.0651C528.122 59.6171 528.122 59.4678 528.719 57.8253C531.407 48.2691 536.036 39.0114 540.664 30.2017C541.112 29.6045 541.411 29.0072 541.71 28.2606C541.56 28.2606 533.199 29.6045 529.764 30.3511C518.267 32.5908 506.62 36.6224 501.693 40.0566C499.602 41.4005 498.258 43.1923 498.557 44.0882C498.856 44.9841 501.095 46.0293 504.231 46.9252C505.874 47.5225 506.172 47.6718 506.62 48.2691C506.77 48.5677 506.919 48.8663 507.068 49.3143C507.068 49.6129 506.919 49.6129 506.172 49.6129C503.783 49.0156 501.394 48.1197 499.304 46.6266C497.064 45.1334 496.019 42.4457 497.064 40.5046C499.154 36.3237 510.652 31.247 524.538 28.2606C528.271 27.514 533.796 26.6181 538.723 25.8715C540.963 25.7222 542.904 25.4236 543.203 25.2743C543.501 25.2743 543.949 24.677 544.696 23.1838C546.637 20.0482 547.981 18.1071 548.28 18.1071C549.175 18.1071 550.669 19.7496 550.669 20.6455C550.669 21.392 550.37 22.1386 550.071 22.8852L549.474 24.677L550.519 24.5277C559.329 23.4825 574.41 23.1838 579.636 23.9304C582.473 24.3784 584.713 24.9756 585.011 25.4236ZM590.171 16.6139C590.918 17.0619 591.814 18.1071 591.814 18.555C591.814 19.4509 590.619 23.7811 590.171 24.0797C589.723 24.5277 580.764 46.3279 577.181 56.1829C573.896 64.9925 571.059 73.8022 567.923 84.4037C563.145 101.277 560.756 112.923 561.502 116.507C561.95 118.299 561.95 118.597 561.502 118.597C561.204 118.597 560.905 118.597 560.606 118.448C560.009 118.299 559.86 117.851 559.412 116.805C558.964 115.163 558.815 113.52 559.113 110.683C559.71 103.964 562.547 90.8243 566.878 75.2954C571.656 57.9747 575.538 46.4773 581.511 32.4415C584.198 26.1702 588.081 17.3605 588.379 16.7632C588.678 16.3153 589.425 16.166 590.171 16.6139ZM605.459 82.164L606.056 82.6119L605.459 83.5078C601.576 88.8832 592.916 95.4532 586.047 97.9916C582.464 99.3354 580.224 99.634 578.134 99.0368C573.654 97.8422 572.31 95.0052 572.31 90.8243C572.161 89.3312 572.31 87.838 572.907 86.4942C573.355 84.8517 573.505 84.553 573.355 83.6571C573.206 83.0599 573.206 82.4626 573.355 81.8653C573.654 80.8201 574.55 79.9242 575.744 79.4763C576.192 79.327 576.79 78.879 578.283 77.3858C580.373 75.4447 582.016 74.3995 583.658 74.3995C585.301 74.3995 587.093 75.4447 587.69 77.0872C588.138 77.9831 588.138 79.0283 587.69 79.9242C586.645 83.3585 582.314 87.6887 578.432 87.6887H576.64L576.342 88.4353C575.446 91.7202 575.744 95.4532 577.238 96.9463C578.283 97.9916 582.912 96.9463 587.839 94.4079C593.364 91.8696 600.083 86.6435 603.069 83.0599C604.115 81.716 604.712 81.5667 605.459 82.164ZM581.419 79.4763C579.776 81.2681 577.387 84.8517 577.387 85.7476C577.387 86.0462 578.88 85.4489 579.925 84.7024C581.568 83.3585 583.061 81.8653 584.106 80.0735C584.703 78.879 585.301 77.0872 585.002 76.9379C584.703 76.6393 582.762 78.1324 581.419 79.4763Z" fill="#FF4B3F"/>
<path d="M2.2977 69.5002H41.6577C47.0177 69.5002 65.8977 70.2202 65.8977 91.1002C65.8977 111.9 48.1377 114.3 42.2977 114.3C37.7377 114.3 25.5777 114.3 20.9377 114.3V125.66H2.2977V69.5002ZM41.0977 97.7402C43.9777 97.7402 48.4577 97.1002 48.4577 91.6602C48.4577 86.2202 43.4177 86.0602 40.7777 86.0602C38.1377 86.0602 20.9377 86.0602 20.9377 86.0602V97.7402C20.9377 97.7402 38.2177 97.7402 41.0977 97.7402ZM108.506 79.3402C121.306 79.3402 127.546 84.3802 127.546 84.3802L120.586 98.5402C120.586 98.5402 113.706 95.1802 106.266 94.7002C95.8664 94.0602 91.4664 98.8602 88.9064 101.34V125.66H70.2664V79.3402H71.5464H88.8264H88.9064V85.7402C91.6264 82.3802 97.3864 79.3402 108.506 79.3402ZM158.4 79.1002C176.64 79.1002 193.36 82.8602 193.36 102.62C193.36 120.62 180 126.14 158.88 126.14C137.28 126.14 125.04 120.46 125.04 102.62C125.04 83.4202 140.4 79.1002 158.4 79.1002ZM159.04 113.02C167.92 113.02 173.52 110.62 173.52 102.62C173.52 93.9002 164.72 92.2202 158.88 92.2202C153.04 92.2202 144.8 94.3802 144.8 102.22C144.8 109.58 149.28 113.02 159.04 113.02ZM294.85 88.7802C297.41 95.1002 297.41 104.86 297.41 122.06V125.66H278.85C278.85 125.66 278.85 117.02 278.85 110.22C278.85 103.42 281.17 93.2602 269.17 93.2602C263.41 93.2602 257.73 96.4602 255.33 99.3402C255.81 105.02 255.81 112.38 255.81 122.06V125.66H237.41C237.41 125.66 237.41 117.02 237.41 110.22C237.41 103.42 239.49 93.2602 227.49 93.2602C221.49 93.2602 217.17 96.0602 214.61 99.7402V125.66H195.97V79.3402H214.61V85.0202C219.33 81.8202 224.61 78.9402 233.89 78.9402C241.41 78.9402 248.45 80.0602 252.29 86.9402C257.17 82.8602 264.45 78.9402 275.49 78.9402C283.65 78.9402 291.25 80.1402 294.85 88.7802ZM301.907 141.18V79.5802H320.547V85.6602C324.547 82.7802 331.107 79.5802 341.667 79.5802C355.507 79.5802 371.347 82.0602 371.347 103.34C371.347 118.7 357.427 125.74 342.067 125.74C331.987 125.74 323.107 122.46 320.547 119.82V141.18H301.907ZM338.947 112.06C338.947 112.06 351.427 112.38 351.427 102.78C351.427 94.7002 345.427 93.3402 335.907 93.3402C328.387 93.3402 322.387 96.0602 320.547 98.8602V106.38C325.187 112.46 338.947 112.06 338.947 112.06ZM409.975 110.54C417.095 110.54 425.175 107.74 425.175 107.74L431.735 122.14C431.735 122.14 420.935 125.9 402.375 125.9C387.735 125.9 384.935 123.02 384.935 102.3V93.0202H375.735V79.1802H384.935V69.5002H403.575V79.1802H426.135V93.0202H403.575V102.3C403.575 102.3 403.015 110.54 409.975 110.54ZM67.9777 192.98C67.9777 202.98 64.1377 208.66 48.6977 208.66C40.8577 208.66 18.0577 208.66 18.0577 208.66H2.2977V152.58L42.2177 152.5C57.5777 152.5 62.6977 157.54 62.6977 166.58C62.6977 172.26 61.0977 175.62 58.7777 177.54C62.8577 178.82 67.9777 182.58 67.9777 192.98ZM21.0177 168.1V173.54H41.9777C43.4977 173.54 44.6977 172.26 44.6977 170.82C44.6977 169.3 43.4977 168.1 41.9777 168.1H21.0177ZM48.3777 193.22C49.8977 193.22 51.0977 191.94 51.0977 190.42C51.0977 188.9 49.8977 187.7 48.3777 187.7H21.0177V193.22H48.3777ZM138.216 208.74H119.816C119.816 207.3 119.816 205.86 119.816 204.5C115.416 207.14 108.376 209.54 100.136 209.54C87.8158 209.54 70.6158 209.06 70.6158 194.42C70.6158 184.18 85.0158 180.5 99.8158 180.5C107.816 180.5 113.496 181.86 117.816 183.46C115.496 176.66 110.536 175.7 100.376 175.7C85.1758 175.7 76.6958 178.9 76.6158 178.98L72.3758 166.34C72.7758 166.18 84.4558 161.22 101.496 161.22C110.616 161.22 129.656 162.5 134.696 173.86C137.976 181.54 138.216 193.78 138.216 208.74ZM102.296 197.86C110.696 197.86 117.736 195.54 118.536 194.26C118.536 193.86 118.536 193.78 118.536 193.46C118.056 192.98 116.696 191.3 103.176 191.3C94.1358 191.3 90.7758 192.34 90.7758 194.42C90.7758 197.38 96.7758 197.86 102.296 197.86ZM172.553 193.54C179.673 193.54 187.753 190.74 187.753 190.74L194.313 205.14C194.313 205.14 183.513 208.9 164.953 208.9C150.313 208.9 147.513 206.02 147.513 185.3V176.02H138.313V162.18H147.513V152.5H166.153V162.18H188.713V176.02H166.153V185.3C166.153 185.3 165.593 193.54 172.553 193.54ZM227.71 193.54C234.83 193.54 242.91 190.74 242.91 190.74L249.47 205.14C249.47 205.14 238.67 208.9 220.11 208.9C205.47 208.9 202.67 206.02 202.67 185.3V176.02H193.47V162.18H202.67V152.5H221.31V162.18H243.87V176.02H221.31V185.3C221.31 185.3 220.75 193.54 227.71 193.54ZM254.178 203.7V153.14V152.66H272.818V208.66H254.178V203.7ZM310.355 161.22C331.395 161.22 344.755 168.26 343.235 189.94C333.635 189.94 338.115 189.94 295.715 189.94C296.195 192.5 300.115 194.82 310.195 194.82C323.955 194.82 334.755 191.62 334.755 191.62L342.755 204.58C342.755 204.58 335.475 208.66 310.835 208.66C282.995 208.66 276.595 199.14 276.595 184.98C276.595 170.34 287.475 161.22 310.355 161.22ZM310.435 175.62C298.115 175.62 295.715 179.46 295.715 181.78H324.355C324.355 178.66 321.395 175.62 310.435 175.62Z" fill="#111111"/>
</svg>
