<svg width="299" height="18" viewBox="0 0 299 18" fill="none" xmlns="http://www.w3.org/2000/svg">
<path d="M20.4897 12.796C20.4897 15.796 19.3377 17.5 14.7057 17.5C12.3537 17.5 5.5137 17.5 5.5137 17.5H0.785695V0.675999L12.7617 0.651999C17.3697 0.651999 18.9057 2.164 18.9057 4.876C18.9057 6.58 18.4257 7.588 17.7297 8.164C18.9537 8.548 20.4897 9.676 20.4897 12.796ZM6.4017 5.332V6.964H12.6897C13.1457 6.964 13.5057 6.58 13.5057 6.148C13.5057 5.692 13.1457 5.332 12.6897 5.332H6.4017ZM14.6097 12.868C15.0657 12.868 15.4257 12.484 15.4257 12.028C15.4257 11.572 15.0657 11.212 14.6097 11.212H6.4017V12.868H14.6097ZM36.8166 0.699999L44.3526 17.5H37.8726L36.6246 14.692H28.2966L27.0246 17.5H20.5686L28.1286 0.699999H36.8166ZM30.2886 9.82H34.6086L32.4486 5.428L30.2886 9.82ZM40.1373 0.651999H62.3853V6.244H54.0573V17.5H48.4653V6.244H40.1373V0.651999ZM63.7154 0.651999H85.9634V6.244H77.6354V17.5H72.0434V6.244H63.7154V0.651999ZM92.8855 11.932H105.102V17.5H87.2935V0.651999H92.8855V11.932ZM106.611 0.675999H125.211V5.332H112.203V6.82H124.371V11.308H112.203V12.844H125.211V17.5H106.611V0.675999ZM149.05 17.5C144.514 17.5 140.65 16.828 139.282 14.188C138.298 12.316 138.106 9.916 138.106 4.708V0.651999H144.01C144.01 0.651999 144.01 6.148 144.01 8.188C144.01 10.252 144.49 12.892 149.05 12.892C153.61 12.892 153.946 10.252 153.946 8.188C153.946 6.148 153.946 0.651999 153.946 0.651999H159.85V4.708C159.85 9.916 159.658 12.316 158.674 14.188C157.306 16.828 153.586 17.5 149.05 17.5ZM182.649 17.5H175.017L166.761 7.348V17.5H161.169V0.651999H168.945L177.057 10.636V0.651999H182.649V17.5ZM184.681 17.5V0.675999H190.273V17.5H184.681ZM209.25 0.651999H215.634L207.378 17.5H200.082L191.778 0.651999H198.162L203.73 12.604L209.25 0.651999ZM216.087 0.675999H234.687V5.332H221.679V6.82H233.847V11.308H221.679V12.844H234.687V17.5H216.087V0.675999ZM236.45 0.651999H248.81C250.418 0.651999 256.082 0.868 256.082 6.844C256.082 9.964 254.618 11.644 252.986 12.532L256.418 17.5L249.962 17.476L247.106 13.516C245.498 13.516 242.978 13.516 242.042 13.516V17.5H236.45V0.651999ZM248.282 8.596C249.098 8.596 250.37 8.428 250.37 7.036C250.37 5.62 248.93 5.572 248.21 5.572C247.466 5.572 242.042 5.572 242.042 5.572V8.596C242.042 8.596 247.49 8.596 248.282 8.596ZM266.996 0.699999C275.804 0.699999 277.844 1.924 277.844 6.796C277.844 6.796 272.852 6.796 271.892 6.796C271.892 5.932 271.556 5.428 267.14 5.428C262.868 5.428 262.508 5.62 262.508 6.244C262.556 6.7 262.868 6.724 267.092 7.06C276.428 7.828 278.444 7.948 278.444 12.292C278.444 16.612 276.812 17.5 267.164 17.5C258.284 17.5 256.916 16.636 256.916 11.716C256.916 11.716 261.98 11.716 262.7 11.716C262.7 12.724 263.108 12.964 267.404 12.964C271.46 12.964 271.916 12.988 271.916 12.22C271.916 11.692 271.412 11.788 266.996 11.428C260.156 10.876 256.676 10.54 256.676 6.196C256.676 1.204 259.58 0.699999 266.996 0.699999ZM279.696 0.675999H298.296V5.332H285.288V6.82H297.456V11.308H285.288V12.844H298.296V17.5H279.696V0.675999Z" fill="#111111"/>
</svg>
